<svg xmlns="http://www.w3.org/2000/svg" viewBox="0 0 899.66 900.36">
  <defs>
    <style>.cls-1 {
      fill: #fff;
    }</style>
  </defs>
  <g id="Слой_2" data-name="Слой 2">
    <g id="Слой_1-2" data-name="Слой 1">
      <path
        d="M899.66,428.89v44c-.33,2.12-.67,4.23-1,6.35-3.42,24.18-4.78,48.87-10.59,72.46C858.39,672.32,790.69,766.34,686,833.14c-48.83,31.16-102.86,49.65-159.74,59.62a543.13,543.13,0,0,1-57.84,7c-27.28,1.8-54.45-1-81.53-4.58a421.82,421.82,0,0,1-102.9-27c-50.68-20.52-95.82-49.94-136.58-86.18A422.28,422.28,0,0,1,51.54,658.35,451.69,451.69,0,0,1,9,532.7,648.64,648.64,0,0,1,.69,465a251.86,251.86,0,0,1,2.78-60.17c3.61-21.6,6-43.48,11.08-64.74C28.37,281.74,56.14,229.79,91,181.51A417.2,417.2,0,0,1,236.77,54.82,468,468,0,0,1,358.88,11.16c21.43-4.51,43.17-8.46,65-10C444.78-.35,466-.91,487,2.78,502.58,5.5,518.43,6.53,534,9.36a428.58,428.58,0,0,1,145.74,55q138.51,83.73,193.94,236a418.33,418.33,0,0,1,23.21,103.3C897.64,412.07,898.71,420.47,899.66,428.89ZM744.76,711.26c.52-.64,1.21-1.57,2-2.43a360.67,360.67,0,0,0,46.77-65.24c38.93-69.78,55.09-144.58,49.35-224.25-2.81-38.95-11-76.74-25.75-112.81C774.18,201.59,700.19,127,595.31,83.93,538.2,60.46,478.42,52.39,416.82,57.52A386,386,0,0,0,306.06,83.37c-64.4,25.51-118.25,65.49-161.84,119.28C91.15,268.14,61.59,343,56.8,427.13A392.19,392.19,0,0,0,89.58,609.55c15.94,36.28,36.92,69.28,63.79,98.49,2.43,2.64,4.11,3.3,7.41,1,19.79-13.5,41.43-23.48,64.05-31,29-9.63,58.35-18.22,87.52-27.35,8-2.51,15.91-5.37,24.53-8.29-.34,4.25-.71,7.69-.88,11.15-1,20.34-1.83,40.7,6,60.11,18.66,46.42,45.43,87.28,83.21,120.54,16.2,14.27,33.91,14.33,50.14,0,26.66-23.52,47.95-51.3,65-82.37,8.87-16.19,17.46-32.54,21.7-50.77,3.41-14.63,2.71-29.46,2.68-44.27V642.69c2.23.67,3.49,1,4.72,1.42,18.5,5.95,36.91,12.19,55.51,17.81,28,8.45,56.16,16.56,82.62,29.28C719.93,697.17,731.82,704.24,744.76,711.26Z"/>
      <path class="cls-1"
            d="M744.76,711.26c-12.94-7-24.83-14.09-37.24-20.06-26.46-12.72-54.6-20.83-82.62-29.28-18.6-5.62-37-11.86-55.51-17.81-1.23-.4-2.49-.75-4.72-1.42v14.16c0,14.81.73,29.64-2.68,44.27-4.24,18.23-12.83,34.58-21.7,50.77-17,31.07-38.31,58.85-65,82.37-16.23,14.32-33.94,14.26-50.14,0C387.4,801,360.63,760.13,342,713.71c-7.8-19.41-7-39.77-6-60.11.17-3.46.54-6.9.88-11.15-8.62,2.92-16.52,5.78-24.53,8.29-29.17,9.13-58.52,17.72-87.52,27.35-22.62,7.51-44.26,17.49-64.05,31-3.3,2.26-5,1.6-7.41-1-26.87-29.21-47.85-62.21-63.79-98.49A392.19,392.19,0,0,1,56.8,427.13c4.79-84.18,34.35-159,87.42-224.48,43.59-53.79,97.44-93.77,161.84-119.28A386,386,0,0,1,416.82,57.52c61.6-5.13,121.38,2.94,178.49,26.41C700.19,127,774.18,201.59,817.12,306.53c14.76,36.07,22.94,73.86,25.75,112.81,5.74,79.67-10.42,154.47-49.35,224.25a360.67,360.67,0,0,1-46.77,65.24C746,709.69,745.28,710.62,744.76,711.26ZM624.9,371.1c0-3.61-.06-6.93,0-10.24.57-27.62,2-55.25,1.37-82.84-.28-12.56-3.34-25.44-7.32-37.46-11.09-33.49-34.73-56.58-64.74-73.69-25.11-14.31-52.3-21.88-81-24.34-40.86-3.5-80.33,1.05-117.62,19.36-53.83,26.43-82,69.62-82.84,129.48-.34,24.89,2.54,49.84,4.32,74.74.26,3.68-.51,4.87-3.89,5.8-11.82,3.27-17.41,10-18.53,21.9-2.31,24.39,3.06,46.91,18.63,66,9.18,11.24,16.16,23.5,22.44,36.38,2.48,5.08,5.2,10.05,8,15,14.95,26.77,32.43,51.58,55.61,72,29.78,26.24,64.46,38.07,104,34.63,33-2.87,60.64-17.7,84.27-40.43,23.2-22.34,40.33-49,55.14-77.36,6.93-13.24,13.16-26.74,23-38.43,15.54-18.47,22.19-40.13,20.06-64.46C644.33,381.19,640.23,375.51,624.9,371.1ZM440.19,647.88c-11.65-1.06-25,6.25-31.27,16-2.28,3.57-2.34,7,.6,10,5.89,6.11,11.66,12.39,18,18,7.28,6.49,8.19,8.77,4.47,17.62q-11.33,26.89-22.67,53.8c-3.72,8.88-2.79,13,4.38,19.48q15,13.58,30.12,27.06c5.07,4.51,7.92,4.51,12.9-.09,10.17-9.38,20.23-18.87,30.37-28.28,7.19-6.68,7.75-8.79,4-17.9-7.84-18.89-15.79-37.74-23.66-56.62-2.84-6.82-2.36-8.43,2.95-13.58,6.69-6.51,13.24-13.16,19.89-19.7,3-3,3.91-6.24,1.37-9.83-5.76-8.16-13.1-14.75-23.22-15.86C459.09,647.08,449.59,647.88,440.19,647.88Z"/>
      <path
        d="M624.9,371.1c15.33,4.41,19.43,10.09,20.82,26,2.13,24.33-4.52,46-20.06,64.46-9.83,11.69-16.06,25.19-23,38.43-14.81,28.32-31.94,55-55.14,77.36-23.63,22.73-51.23,37.56-84.27,40.43-39.51,3.44-74.19-8.39-104-34.63-23.18-20.43-40.66-45.24-55.61-72-2.76-4.94-5.48-9.91-8-15-6.28-12.88-13.26-25.14-22.44-36.38-15.57-19-20.94-41.57-18.63-66,1.12-11.89,6.71-18.63,18.53-21.9,3.38-.93,4.15-2.12,3.89-5.8-1.78-24.9-4.66-49.85-4.32-74.74.8-59.86,29-103,82.84-129.48,37.29-18.31,76.76-22.86,117.62-19.36,28.71,2.46,55.9,10,81,24.34,30,17.11,53.65,40.2,64.74,73.69,4,12,7,24.9,7.32,37.46.62,27.59-.8,55.22-1.37,82.84C624.84,364.17,624.9,367.49,624.9,371.1Zm-25.1-37.23c-15.67-1.7-30.71-3.07-45.68-5-17.3-2.25-34.72-4.14-51.76-7.71-44.94-9.42-84.8-29.08-117.81-61.52-7.16-7-14.95-8.15-24.24-4.91C333.23,264.14,316.5,284,304.85,309a26.13,26.13,0,0,0-2.05,12.63c1.54,19.05,3.6,38.06,5.49,57.08.76,7.69,1.59,15.38,2.39,23.06-1.82-1.38-2.51-3.27-3.74-4.68-4-4.58-8.09-9.1-12.42-13.37-.93-.92-3.5-1.47-4.46-.86-5.71,3.61-10.77,7.85-11.66,15.27-2.36,19.75,4,36.57,16.31,51.8a169.94,169.94,0,0,1,15.7,23c12.36,21.87,24,44.14,36.3,66.07a105.72,105.72,0,0,0,26.72,31.42c23.17,18.38,50.05,25.6,79.16,25.46,43.64-.2,77.55-18.8,100.14-56,15-24.72,28-50.68,42.08-76a59.77,59.77,0,0,1,8.55-11.49c15.78-17,22.4-36.66,17.56-59.61-1-4.95-3.37-9.7-9.09-10.84-6.22-1.23-10,2.71-13.1,7.29-2.67,4-4.91,8.29-7.36,12.45-.69,1.19-1.45,2.34-2.18,3.51l-.85-.34C592.12,381.52,595.89,358.1,599.8,333.87Z"/>
      <path
        d="M440.19,647.88c9.4,0,18.9-.8,28.19.22,10.12,1.11,17.46,7.7,23.22,15.86,2.54,3.59,1.66,6.86-1.37,9.83-6.65,6.54-13.2,13.19-19.89,19.7-5.31,5.15-5.79,6.76-2.95,13.58,7.87,18.88,15.82,37.73,23.66,56.62,3.78,9.11,3.22,11.22-4,17.9-10.14,9.41-20.2,18.9-30.37,28.28-5,4.6-7.83,4.6-12.9.09q-15.12-13.47-30.12-27.06c-7.17-6.49-8.1-10.6-4.38-19.48q11.31-26.91,22.67-53.8c3.72-8.85,2.81-11.13-4.47-17.62-6.33-5.64-12.1-11.92-18-18-2.94-3.06-2.88-6.47-.6-10C415.18,654.13,428.54,646.82,440.19,647.88Z"/>
      <path class="cls-1"
            d="M599.8,333.87c-3.91,24.23-7.68,47.65-11.46,71.07l.85.34c.73-1.17,1.49-2.32,2.18-3.51,2.45-4.16,4.69-8.45,7.36-12.45,3.06-4.58,6.88-8.52,13.1-7.29,5.72,1.14,8,5.89,9.09,10.84,4.84,22.95-1.78,42.61-17.56,59.61A59.77,59.77,0,0,0,594.81,464c-14.09,25.29-27.06,51.25-42.08,76-22.59,37.18-56.5,55.78-100.14,56-29.11.14-56-7.08-79.16-25.46A105.72,105.72,0,0,1,346.71,539c-12.27-21.93-23.94-44.2-36.3-66.07a169.94,169.94,0,0,0-15.7-23c-12.32-15.23-18.67-32.05-16.31-51.8.89-7.42,6-11.66,11.66-15.27,1-.61,3.53-.06,4.46.86,4.33,4.27,8.42,8.79,12.42,13.37,1.23,1.41,1.92,3.3,3.74,4.68-.8-7.68-1.63-15.37-2.39-23.06-1.89-19-4-38-5.49-57.08A26.13,26.13,0,0,1,304.85,309c11.65-25,28.38-44.88,55.46-54.3,9.29-3.24,17.08-2.13,24.24,4.91,33,32.44,72.87,52.1,117.81,61.52,17,3.57,34.46,5.46,51.76,7.71C569.09,330.8,584.13,332.17,599.8,333.87Z"/>
    </g>
  </g>
</svg>
